<?xml version="1.0" encoding="UTF-8" standalone="no"?>
<svg
   viewBox="0 0 24 24"
   fill="currentColor"
   version="1.1"
   id="svg1"
   sodipodi:docname="social-icone-github.svg"
   inkscape:version="1.4.2 (f4327f4, 2025-05-13)"
   xmlns:inkscape="http://www.inkscape.org/namespaces/inkscape"
   xmlns:sodipodi="http://sodipodi.sourceforge.net/DTD/sodipodi-0.dtd"
   xmlns="http://www.w3.org/2000/svg"
   xmlns:svg="http://www.w3.org/2000/svg">
  <defs
     id="defs1" />
  <sodipodi:namedview
     id="namedview1"
     pagecolor="#ffffff"
     bordercolor="#000000"
     borderopacity="0.25"
     inkscape:showpageshadow="2"
     inkscape:pageopacity="0.0"
     inkscape:pagecheckerboard="0"
     inkscape:deskcolor="#d1d1d1"
     inkscape:zoom="24.625"
     inkscape:cx="12"
     inkscape:cy="12"
     inkscape:window-width="1920"
     inkscape:window-height="1009"
     inkscape:window-x="1912"
     inkscape:window-y="-8"
     inkscape:window-maximized="1"
     inkscape:current-layer="svg1" />
  <path
     d="M12 .5C5.7.5.8 5.4.8 11.7c0 5 3.2 9.2 7.7 10.7.6.1.8-.2.8-.6v-2.2c-3.1.7-3.8-1.5-3.8-1.5-.5-1.3-1.2-1.6-1.2-1.6-1-.7.1-.7.1-.7 1.1.1 1.7 1.1 1.7 1.1 1 1.7 2.7 1.2 3.3.9.1-.7.4-1.2.7-1.5-2.5-.3-5.1-1.3-5.1-5.6 0-1.2.4-2.2 1.1-3-.1-.3-.5-1.5.1-3.1 0 0 .9-.3 3 1.1.9-.2 1.8-.4 2.7-.4.9 0 1.8.1 2.7.4 2.1-1.4 3-1.1 3-1.1.6 1.6.2 2.8.1 3.1.7.8 1.1 1.8 1.1 3 0 4.3-2.6 5.3-5.1 5.6.4.4.8 1.1.8 2.2v3.3c0 .3.2.7.8.6 4.5-1.5 7.7-5.7 7.7-10.7C23.2 5.4 18.3.5 12 .5z"
     id="path1"
     style="fill:#ffffff"
     inkscape:export-filename="social-icone-github.png"
     inkscape:export-xdpi="96"
     inkscape:export-ydpi="96" />
</svg>
